<?xml version="1.0" encoding="utf-8"?>
<svg viewBox="0 0 500 500" xmlns="http://www.w3.org/2000/svg" xmlns:bx="https://boxy-svg.com">
  <defs>
    <linearGradient id="gradient-0" gradientUnits="userSpaceOnUse" x1="232.128" y1="79.973" x2="232.128" y2="137.937" spreadMethod="pad" gradientTransform="matrix(0.831076, 0, 0, 1, 74.724946, 105.62927)">
      <stop offset="0" style="stop-color: rgb(79, 239, 106);"/>
      <stop offset="1" style="stop-color: rgb(2, 146, 0);"/>
    </linearGradient>
    <style id="bx-google-fonts">@import url(https://fonts.googleapis.com/css?family=Roboto:100,100italic,300,300italic,400,400italic,500,500italic,700,700italic,900,900italic);</style>
    <linearGradient id="gradient-1" gradientUnits="userSpaceOnUse" x1="232.128" y1="79.973" x2="232.128" y2="137.937" spreadMethod="pad" gradientTransform="matrix(0.814776, 0, 0, 0.999999, 80.705423, 1.669225)">
      <stop offset="0" style="stop-color: rgb(239, 235, 13);"/>
      <stop offset="1" style="stop-color: rgb(206, 200, 2);"/>
    </linearGradient>
    <linearGradient id="gradient-2" gradientUnits="userSpaceOnUse" x1="232.128" y1="79.973" x2="232.128" y2="137.937" spreadMethod="pad" gradientTransform="matrix(0.814777, 0, 0, 0.999997, 78.114999, 211.867462)">
      <stop offset="0" style="stop-color: rgb(79, 154, 239);"/>
      <stop offset="1" style="stop-color: rgb(0, 58, 146);"/>
    </linearGradient>
    <linearGradient id="gradient-3" gradientUnits="userSpaceOnUse" x1="232.128" y1="79.973" x2="232.128" y2="137.937" spreadMethod="pad" gradientTransform="matrix(0.81478, 0, 0, 0.999997, 76.311806, 317.496654)">
      <stop offset="0" style="stop-color: rgb(133, 119, 179);"/>
      <stop offset="1" style="stop-color: rgb(35, 30, 80);"/>
    </linearGradient>
    <linearGradient id="gradient-4" gradientUnits="userSpaceOnUse" x1="232.128" y1="79.973" x2="232.128" y2="137.937" spreadMethod="pad" gradientTransform="matrix(0.814776, 0, 0, 0.999999, 80.688364, -100.31765)">
      <stop offset="0" style="stop-color: rgb(239, 62, 13);"/>
      <stop offset="1" style="stop-color: rgb(206, 2, 2);"/>
    </linearGradient>
  </defs>
  <rect x="155.64" y="185.602" width="224.001" height="57.964" rx="17.389" ry="17.389" style="stroke-opacity: 0; fill: url(#gradient-0);"/>
  <rect x="160.033" y="81.642" width="219.608" height="57.964" rx="17.389" ry="17.389" style="stroke-opacity: 0; fill: url(#gradient-1);"/>
  <text x="207.469" y="123.561" style="fill: rgb(255, 255, 255); font-size: 36px; white-space: pre;" transform="matrix(0.980391, 0, 0, 1, 3.436273, 0)">Inactive</text>
  <text x="218.096" y="228.084" style="fill: rgb(255, 255, 255); font-size: 36px; white-space: pre;" transform="matrix(0.980391, 0, 0, 1, 5.257136, 0)">Active</text>
  <rect x="157.442" y="291.841" width="219.608" height="57.964" rx="17.389" ry="17.389" style="stroke-opacity: 0; fill: url(#gradient-2);"/>
  <text x="171.599" y="334.144" style="fill: rgb(255, 255, 255); font-size: 36px; white-space: pre;" transform="matrix(0.980391, 0, 0, 1, 5.257136, 0)">Background</text>
  <rect x="155.64" y="397.47" width="219.608" height="57.964" rx="17.389" ry="17.389" style="stroke-opacity: 0; fill: url(#gradient-3);"/>
  <text x="176.144" y="439.773" style="fill: rgb(255, 255, 255); font-size: 36px; white-space: pre;" transform="matrix(0.980391, 0, 0, 1, 5.23963, 0)">Suspended</text>
  <rect x="160.016" y="-20.345" width="219.608" height="57.964" rx="17.389" ry="17.389" style="stroke-opacity: 0; fill: url(#gradient-4);"/>
  <text x="207.469" y="123.561" style="fill: rgb(255, 255, 255); font-size: 36px; white-space: pre;" transform="matrix(0.980391, 0, 0, 1, -25.446808, -101.986923)">Not running</text>
  <path d="M -265.434 -79.798 L -244.377 -43.322 L -286.492 -43.322 L -265.434 -79.798 Z" transform="matrix(-1, 0, 0, -1, 0, 0)" style="fill: rgb(255, 203, 98);" bx:shape="triangle -286.492 -79.798 42.115 36.476 0.5 0 1@a9edb855"/>
  <path d="M -267.272 -181.785 L -246.215 -145.309 L -288.33 -145.309 L -267.272 -181.785 Z" transform="matrix(-1, 0, 0, -1, 0, 0)" style="fill: rgb(255, 203, 98);" bx:shape="triangle -288.33 -181.785 42.115 36.476 0.5 0 1@4f98d668"/>
  <path d="M -269.093 -287.414 L -248.036 -250.938 L -290.151 -250.938 L -269.093 -287.414 Z" transform="matrix(-1, 0, 0, -1, 0, 0)" style="fill: rgb(255, 203, 98);" bx:shape="triangle -290.151 -287.414 42.115 36.476 0.5 0 1@3225a811"/>
  <path d="M -269.093 -392.865 L -248.036 -356.389 L -290.151 -356.389 L -269.093 -392.865 Z" transform="matrix(-1, 0, 0, -1, 0, 0)" style="fill: rgb(255, 203, 98);" bx:shape="triangle -290.151 -392.865 42.115 36.476 0.5 0 1@e70ef174"/>
</svg>