<?xml version="1.0" encoding="utf-8"?>
<svg style="width: 75%" viewBox="306 25 275 311" xmlns="http://www.w3.org/2000/svg" xmlns:xlink="http://www.w3.org/1999/xlink" xmlns:bx="https://boxy-svg.com">
  <defs>
    <style id="bx-google-fonts">@import url(https://fonts.googleapis.com/css?family=Oswald:300,400,700);</style>
    <pattern id="pattern-0" x="0" y="0" width="20" height="20" patternUnits="userSpaceOnUse" viewBox="0 0 100 100">
      <path d="M 0 0 L 50 0 L 50 100 L 0 100 Z" style="fill: rgb(255, 255, 255);"/>
    </pattern>
    <pattern id="pattern-0-2" patternTransform="matrix(1, 0, 0, 1.000001, 433.368011, 141.160492)" xlink:href="#pattern-0"/>
  </defs>
  <rect x="312.557" y="30.353" width="262.868" height="300.389" rx="21.555" ry="21.555" style="stroke-width: 2; fill: rgb(36, 168, 183); stroke-opacity: 0.7; fill-opacity: 0.7;"/>
  <g>
    <rect x="341.298" y="185.662" width="188.624" height="68.803" rx="11.177" ry="11.177" style="stroke-width: 2; fill: rgb(255, 255, 255); stroke: rgb(36, 168, 183);"/>
    <rect x="351.298" y="195.662" width="188.624" height="68.803" rx="11.177" ry="11.177" style="stroke-width: 2; fill: rgb(255, 255, 255); stroke: rgb(36, 168, 183);"/>
    <rect x="361.298" y="205.662" width="188.624" height="68.803" rx="11.177" ry="11.177" style="stroke-width: 2; fill: rgb(255, 255, 255); stroke: rgb(36, 168, 183);"/>
    <text x="-390.505" y="-256.785" style="fill: rgb(36, 168, 183); font-family: Oswald; font-size: 36px; font-weight: 300; white-space: pre;" transform="matrix(0.76118, 0, 0, 0.761179, 676.517456, 447.544373)">View Controllers</text>
  </g>
  <rect x="348.483" y="50.746" width="188.624" height="68.803" rx="11.177" ry="11.177" style="stroke-width: 2; stroke: rgb(255, 255, 255); fill: rgb(36, 168, 183);"/>
  <text x="365.757" y="100.315" style="fill: rgb(255, 255, 255); font-family: Oswald; font-size: 36px; font-weight: 300; white-space: pre;">AppDelegate</text>
  <text x="398.093" y="319.055" style="fill: rgb(255, 255, 255); font-family: Oswald; font-size: 27px; font-weight: 300; white-space: pre;">Controller</text>
  <g>
    <path d="M 472.596 151.134 L 414.14 151.187" style="stroke-width: 2; fill: rgb(255, 255, 255); stroke: url(#pattern-0-2);" transform="matrix(0, 1, -1, 0, 594.52848, -292.207516)"/>
    <path d="M 40.901 22.536 L 47.274 33.575 L 34.528 33.575 L 40.901 22.536 Z" transform="matrix(0.499999, -0.866025, 0.866025, 0.5, 397.048198, 198.050931)" style="fill: rgb(255, 255, 255); stroke-width: 2;" bx:shape="triangle 34.528 22.536 12.746 11.039 0.5 0 1@9e554ebf"/>
  </g>
</svg>